<?xml version="1.0" standalone="no"?>
<!DOCTYPE svg PUBLIC "-//W3C//DTD SVG 20010904//EN"
 "http://www.w3.org/TR/2001/REC-SVG-20010904/DTD/svg10.dtd">
<svg version="1.0" xmlns="http://www.w3.org/2000/svg"
 width="500.000000pt" height="500.000000pt" viewBox="0 0 500.000000 500.000000"
 preserveAspectRatio="xMidYMid meet">
<metadata>
Created by potrace 1.14, written by Peter Selinger 2001-2017
</metadata>
<g transform="translate(0.000000,500.000000) scale(0.100000,-0.100000)"
fill="#000000" stroke="none">
<path d="M0 2500 l0 -2500 2500 0 2500 0 0 2500 0 2500 -2500 0 -2500 0 0
-2500z m2672 1393 l168 -168 0 -337 0 -338 335 0 335 0 0 -565 0 -565 -1015 0
-1015 0 0 790 0 790 340 0 340 0 0 112 0 113 167 167 c92 93 170 168 173 168
3 0 80 -75 172 -167z m-1502 -2394 l0 -222 96 117 96 116 79 0 c43 0 79 -3 79
-6 0 -5 -116 -147 -172 -209 -17 -21 -16 -24 87 -174 58 -84 105 -155 105
-157 0 -2 -37 -4 -83 -4 l-82 0 -65 101 c-36 56 -68 107 -72 113 -5 7 -18 0
-38 -19 -29 -28 -30 -32 -30 -112 l0 -83 -80 0 -80 0 0 380 0 380 80 0 80 0 0
-221z m2240 151 l0 -70 -80 0 -80 0 0 70 0 70 80 0 80 0 0 -70z m-2670 38 c19
-6 61 -22 92 -35 l58 -26 -36 -66 -37 -66 -59 28 c-109 53 -214 46 -233 -13
-13 -42 18 -67 127 -101 209 -64 258 -109 258 -237 0 -80 -41 -146 -115 -185
-56 -29 -214 -36 -304 -12 -72 18 -161 60 -161 75 0 5 14 38 31 72 l31 63 67
-33 c91 -45 183 -60 234 -39 31 13 37 21 37 45 0 42 -24 58 -153 100 -173 58
-221 103 -219 212 1 95 41 163 117 200 79 38 174 45 265 18z m1834 1 c48 -13
123 -82 147 -134 25 -53 25 -156 0 -210 -23 -51 -75 -103 -121 -123 -20 -8
-79 -17 -137 -20 l-103 -5 0 -118 0 -119 -85 0 -85 0 0 370 0 370 173 0 c94 0
189 -5 211 -11z m1353 -205 c46 -22 113 -82 113 -102 0 -4 -34 -17 -76 -29
l-77 -22 -29 24 c-34 29 -84 33 -128 10 -88 -45 -84 -223 5 -263 48 -22 136
-5 147 29 4 12 158 -30 158 -43 0 -21 -76 -88 -123 -109 -73 -32 -181 -32
-255 0 -202 90 -218 385 -27 497 83 48 199 51 292 8z m600 0 c89 -42 143 -128
146 -232 l2 -57 -204 -3 -203 -2 6 -33 c4 -17 18 -43 31 -57 22 -21 35 -25 90
-25 56 0 67 3 92 27 l28 27 63 -16 c34 -8 62 -21 62 -27 0 -21 -73 -84 -120
-105 -69 -29 -138 -35 -209 -17 -146 37 -219 138 -209 290 5 77 21 116 70 171
80 91 233 116 355 59z m-2753 -161 c34 -100 63 -184 67 -187 3 -3 30 80 60
184 l54 190 73 0 c39 0 72 -4 72 -9 0 -4 -48 -154 -106 -332 -109 -336 -125
-370 -193 -416 -38 -26 -97 -37 -151 -28 l-40 7 0 69 0 69 30 -6 c62 -13 110
25 110 87 0 13 -45 141 -100 285 -55 145 -100 266 -100 269 0 3 37 5 82 3 l81
-3 61 -182z m1206 130 l0 -57 36 42 c42 50 81 72 124 72 l30 0 0 -68 0 -68
-56 -12 c-31 -6 -72 -23 -90 -37 l-34 -26 0 -170 0 -169 -80 0 -80 0 0 275 0
275 75 0 75 0 0 -57z m430 -218 l0 -275 -80 0 -80 0 0 275 0 275 80 0 80 0 0
-275z"/>
<path d="M2380 3615 l0 -115 120 0 120 0 0 115 0 115 -120 0 -120 0 0 -115z"/>
<path d="M1700 3165 l0 -115 120 0 120 0 0 115 0 115 -120 0 -120 0 0 -115z"/>
<path d="M2380 3165 l0 -115 120 0 120 0 0 115 0 115 -120 0 -120 0 0 -115z"/>
<path d="M1704 2817 c-2 -7 -3 -60 -2 -118 l3 -104 115 0 115 0 0 115 0 115
-113 3 c-87 2 -114 0 -118 -11z"/>
<path d="M2384 2817 c-2 -7 -3 -60 -2 -118 l3 -104 115 0 115 0 0 115 0 115
-113 3 c-87 2 -114 0 -118 -11z"/>
<path d="M3060 2710 l0 -121 118 3 117 3 0 115 0 115 -117 3 -118 3 0 -121z"/>
<path d="M1700 2255 l0 -115 120 0 120 0 0 115 0 115 -120 0 -120 0 0 -115z"/>
<path d="M2380 2255 l0 -115 120 0 120 0 0 115 0 115 -120 0 -120 0 0 -115z"/>
<path d="M3060 2255 l0 -116 118 3 117 3 3 113 3 112 -121 0 -120 0 0 -115z"/>
<path d="M2360 1455 l0 -105 81 0 c93 0 113 8 128 51 14 41 14 72 -1 104 -18
39 -57 55 -138 55 l-70 0 0 -105z"/>
<path d="M4315 1378 c-23 -18 -55 -72 -55 -93 0 -3 56 -5 125 -5 74 0 125 4
125 10 0 24 -35 79 -60 94 -40 23 -101 21 -135 -6z"/>
</g>
</svg>
